<svg xmlns="http://www.w3.org/2000/svg" height="24" viewBox="0 -960 960 960" width="24"><path d="M287.693-868.461h384.614v298.615q0 22.23-10.769 40.423-10.769 18.192-29.539 29.577l-138.153 82.461 28.769 93.539h133.537l-109.383 77.23 42.615 134.306L480-195.54l-109.384 83.23 42.615-134.306-109.383-77.23h133.537l28.769-93.539-138.923-81.692q-18.769-11-29.153-29.577-10.385-18.577-10.385-41.192v-298.615Zm59.998 59.999v238.616q0 5.769 2.885 10.577t7.885 7.885l91.54 54.155v-311.233h-102.31Zm264.618 0h-102.31v311.233l91.54-54.155q5-3.077 7.885-7.885t2.885-10.577v-238.616ZM480-643.923Zm-29.999-8.923Zm59.998 0Z"/></svg>